<svg width="24" height="22" viewBox="0 0 24 22" fill="none" xmlns="http://www.w3.org/2000/svg">
<path d="M21.2212 3.59658C20.7105 3.08559 20.104 2.68023 19.4366 2.40367C18.7691 2.1271 18.0537 1.98476 17.3312 1.98476C16.6087 1.98476 15.8933 2.1271 15.2259 2.40367C14.5584 2.68023 13.952 3.08559 13.4412 3.59658L12.3812 4.65658L11.3212 3.59658C10.2895 2.56489 8.89026 1.98529 7.43122 1.98529C5.97219 1.98529 4.57291 2.56489 3.54122 3.59658C2.50953 4.62827 1.92993 6.02755 1.92993 7.48658C1.92993 8.94561 2.50953 10.3449 3.54122 11.3766L4.60122 12.4366L12.3812 20.2166L20.1612 12.4366L21.2212 11.3766C21.7322 10.8658 22.1376 10.2594 22.4141 9.59194C22.6907 8.92448 22.833 8.20907 22.833 7.48658C22.833 6.76409 22.6907 6.04869 22.4141 5.38123C22.1376 4.71377 21.7322 4.10734 21.2212 3.59658V3.59658Z" stroke="black" stroke-width="2" stroke-linecap="round" stroke-linejoin="round"/>
</svg>
