<svg width="25" height="25" viewBox="0 0 25 25" fill="none" xmlns="http://www.w3.org/2000/svg">
<g clip-path="url(#clip0_2543_191)">
<path d="M9.3811 22.9866C9.93339 22.9866 10.3811 22.5389 10.3811 21.9866C10.3811 21.4343 9.93339 20.9866 9.3811 20.9866C8.82882 20.9866 8.3811 21.4343 8.3811 21.9866C8.3811 22.5389 8.82882 22.9866 9.3811 22.9866Z" stroke="black" stroke-width="2" stroke-linecap="round" stroke-linejoin="round"/>
<path d="M20.3811 22.9866C20.9334 22.9866 21.3811 22.5389 21.3811 21.9866C21.3811 21.4343 20.9334 20.9866 20.3811 20.9866C19.8288 20.9866 19.3811 21.4343 19.3811 21.9866C19.3811 22.5389 19.8288 22.9866 20.3811 22.9866Z" stroke="black" stroke-width="2" stroke-linecap="round" stroke-linejoin="round"/>
<path d="M1.3811 1.98659H5.3811L8.0611 15.3766C8.15255 15.837 8.40301 16.2505 8.76865 16.5449C9.13429 16.8392 9.5918 16.9956 10.0611 16.9866H19.7811C20.2504 16.9956 20.7079 16.8392 21.0736 16.5449C21.4392 16.2505 21.6897 15.837 21.7811 15.3766L23.3811 6.98659H6.3811" stroke="black" stroke-width="2" stroke-linecap="round" stroke-linejoin="round"/>
</g>
<defs>
<clipPath id="clip0_2543_191">
<rect width="24" height="24" fill="white" transform="translate(0.381104 0.986588)"/>
</clipPath>
</defs>
</svg>
